<?xml version="1.0" encoding="UTF-8" ?>
<svg xmlns="http://www.w3.org/2000/svg" width="100" height="100">
  <path
    d="M 50,0.49998826 92.8,25.249994 V 74.750007 L 50,99.500012 7.199996,74.750003 l 1e-6,-49.500011 z"
    fill="#000000"
    stroke="#ffffff"
    stroke-linejoin="round"
  />
  <path
    d="m 65.23715,13.000002 c -0.33995,-2e-4 -0.7205,0.01901 -1.16516,0.05405 -1.80202,0.142029 -2.45578,0.375269 -5.11004,1.82303 -1.81019,0.987364 -2.69901,1.588364 -4.11246,2.780628 -0.67445,0.568912 -1.47703,1.244999 -1.7835,1.502406 -8.79284,5.534432 -23.610393,3.873114 -32.243181,8.911 -5.915305,3.67113 -5.948265,6.070684 -6.206781,8.088915 -0.278278,2.249114 -0.450214,4.332395 -0.424347,8.615069 0.0091,1.368558 0.04054,2.824179 0.06978,3.23483 0.02927,0.410646 0.106896,1.799385 0.172616,3.086088 0.125085,2.448795 -0.197427,4.309435 -0.280112,5.535394 -0.08268,1.225956 -0.05301,0.102556 -0.02449,2.619248 0.02852,2.516688 1.347419,5.860675 2.088301,7.144157 0.740881,1.283482 1.925782,2.688003 2.071582,2.76721 0.413895,0.224847 1.325254,0.195477 1.589892,-0.05114 0.16337,-0.152229 0.217712,-0.317829 0.217712,-0.662829 0,-0.416809 -0.04905,-0.513179 -0.522511,-1.025068 -0.964977,-0.990567 -1.661637,-1.85974 -1.915878,-2.784904 -0.254242,-0.925165 -0.08268,-5.04569 0.504046,-5.281655 0.334404,-0.127171 0.705609,0.0587 0.830032,0.415701 0.05487,0.157438 0.169042,0.312762 0.253869,0.345318 0.220578,0.08466 0.619743,-0.03457 0.68502,-0.204742 0.03054,-0.07961 -0.125862,-0.718485 -0.347561,-1.419571 -0.573386,-1.81322 -0.664696,-2.484967 -1.030837,-3.894945 -0.366141,-1.409977 -0.922059,-5.512915 -0.55342,-7.285121 0.36864,-1.772211 1.439058,-3.774937 2.613535,-5.801383 1.174477,-2.026452 6.476715,-8.866311 7.953929,-9.932958 1.47722,-1.066639 2.654535,-1.413328 5.413877,-2.150067 1.756456,-0.457576 3.267776,-0.308244 4.092235,0.404617 0.336396,0.290869 0.382548,0.383018 0.373027,0.746056 -0.01463,0.558569 -0.633988,1.343377 -1.733348,2.196734 -3.10832,2.412782 -5.549392,5.723044 -7.379712,10.007421 -0.686142,1.60611 -1.354964,3.639623 -1.718962,5.226437 -0.543353,2.368675 -0.787827,3.902951 -0.962604,6.039564 -0.215883,2.639094 1.350263,8.828403 1.683972,9.888622 0.333714,1.06022 1.154856,3.142589 1.499894,3.79714 0.345033,0.654553 1.143907,2.141483 2.859042,4.714488 0.808848,1.213417 3.193247,4.120967 5.435644,6.628318 0.804005,0.898989 1.717129,1.992814 2.029219,2.430841 0.31209,0.438021 0.95353,1.266784 1.42544,1.841695 1.33102,1.621522 1.41952,1.746064 2.36822,3.334959 1.06319,1.78065 1.41946,2.424286 2.16372,3.907777 0.59199,1.179977 0.92616,1.546681 1.20131,1.318271 0.22231,-0.184549 0.18937,-1.215128 -0.10264,-3.209745 -0.27233,-1.860289 -0.25805,-2.464279 0.0585,-2.464279 0.29648,0 0.47054,0.46807 0.89846,2.41781 0.21886,0.997211 0.42232,1.894383 0.45215,1.993741 0.0712,0.23732 0.43404,0.369978 0.67141,0.245383 0.16345,-0.08579 0.17891,-0.175189 0.12383,-0.712995 -0.0347,-0.33817 -0.15287,-1.083899 -0.26263,-1.657181 -0.10975,-0.57328 -0.26754,-1.592152 -0.35086,-2.264009 -0.0833,-0.671861 -0.18875,-1.321434 -0.23424,-1.443492 -0.0455,-0.122061 -0.11208,-0.445838 -0.14793,-0.719606 -0.0359,-0.273765 -0.16088,-1.071656 -0.27778,-1.773065 -0.19866,-1.192095 -0.20168,-1.286084 -0.0461,-1.441736 0.24114,-0.241197 0.48593,-0.04969 0.62262,0.48706 0.0614,0.240953 0.18742,0.617257 0.28011,0.836266 0.40656,0.960544 1.25907,6.48269 1.39338,7.445341 0.13429,0.962647 0.19099,1.456694 0.38721,3.171634 0.15967,0.255738 0.45272,0.23052 0.55867,-0.04822 h -2e-4 c 0.0486,-0.127938 0.11956,-0.988948 0.15765,-1.913445 0.0381,-0.924486 0.11229,-1.794242 0.16503,-1.932693 0.0527,-0.13845 0.0946,-0.735572 0.0931,-1.326828 -0.002,-0.875687 0.0256,-1.085866 0.14987,-1.133563 0.28808,-0.110576 0.44931,0.224767 0.58918,1.224751 0.19834,1.417865 0.44379,2.170314 0.72099,2.210349 l 0.22024,0.03167 v -2.887368 c 0,-1.687127 0.0415,-2.996426 0.0997,-3.149667 0.0722,-0.18987 0.15877,-0.253426 0.31355,-0.230405 0.34021,0.05058 0.57121,0.473652 0.67861,1.243223 0.12445,0.891738 0.2605,1.196486 0.55984,1.253719 0.12912,0.02469 0.25806,0.02148 0.28672,-0.0072 0.0924,-0.09239 0.0514,-3.629992 -0.0502,-4.332619 -0.054,-0.373992 -0.29905,-1.593286 -0.54448,-2.709463 -0.24543,-1.116178 -0.62701,-3.005138 -0.84791,-4.19787 -0.2209,-1.192732 -0.57921,-2.997502 -0.79641,-4.010432 -0.58927,-2.748217 -0.87062,-5.858478 -0.98651,-6.761122 -0.11589,-0.902645 -0.17842,-1.752784 -0.10536,-2.97584 0.0731,-1.22306 0.9984,-6.849719 1.64627,-8.650841 0.55491,-1.54272 1.51116,-3.454987 2.15069,-4.300921 0.48606,-0.642922 0.52683,-0.67093 2.05973,-1.40986 2.7611,-1.330977 5.67762,-3.043955 7.52862,-4.421858 0.65687,-0.488979 2.17962,-1.698921 3.38388,-2.688659 3.04254,-2.500539 5.63615,-4.472839 6.40292,-4.869456 0.50447,-0.260934 1.07754,-0.207211 1.41767,0.132999 0.25042,0.250484 0.2908,0.366572 0.2908,0.833933 0,0.525014 0.17727,0.190602 -0.69824,1.394687 -0.87551,1.204085 -3.4429,2.180961 -4.48431,3.234247 -1.04142,1.05329 -2.37995,2.566323 -2.19794,2.785687 0.18201,0.219363 0.9047,-0.254903 2.79445,-1.224976 1.88975,-0.970072 5.91562,-0.673845 6.59133,0.934491 0.67572,1.608323 0.10231,3.202606 0.55809,4.694458 0.45578,1.491849 1.72841,3.665753 2.9403,4.421663 0.77269,0.452943 1.10086,0.219149 0.49821,-0.354845 -0.69833,-0.665114 -1.212,-2.226295 -0.89281,-2.713546 0.37479,-0.572167 1.10241,-0.365693 1.6239,0.460617 0.33449,0.530007 1.11392,1.485702 1.34594,1.650373 0.10164,0.07214 0.28492,0.116941 0.40724,0.09955 0.396,-0.05628 0.34747,-0.573509 -0.13665,-1.453988 -0.23217,-0.422243 -0.61886,-1.168216 -0.8592,-1.657764 -0.52752,-1.074556 -0.58882,-1.810967 -0.62223,-4.201564 -0.0334,-2.390593 0.56309,-4.202212 1.09712,-5.809353 0.53404,-1.607148 1.24976,-4.425988 0.9284,-6.183063 -0.11591,-0.607124 -0.42167,-1.064402 -1.10549,-1.653094 -1.25747,-1.082544 -1.77023,-1.260253 -3.65778,-1.267918 -1.4603,-0.0059 -1.22817,-0.09275 -7.16588,2.679326 -2.36297,1.103176 -4.59111,2.077225 -5.1256,2.240678 -3.27698,1.002165 -4.81399,1.31334 -7.18882,1.455352 0,0 -1.13479,0.105623 -1.23086,-0.06105 -0.0961,-0.166669 -0.116,-0.567548 -0.0441,-0.829073 0.15337,-0.54791 0.51595,-0.995236 1.26565,-1.561905 3.12708,-2.363618 8.14826,-7.774037 9.19082,-9.903201 0.54322,-1.109382 0.72961,-2.090412 0.67024,-3.527844 -0.0357,-0.864484 -0.11021,-1.340862 -0.30052,-1.92336 -0.58103,-1.77847 -1.74197,-3.153673 -3.29175,-3.899413 -0.92438,-0.4448 -1.57891,-0.619746 -2.59876,-0.62025 z m -4.69833,7.357844 c 0.30993,3e-4 0.9017,0.193251 1.1566,0.393149 0.34749,0.2725 0.49348,0.564212 0.49763,0.994539 0.003,0.306503 -0.11949,0.523259 -0.75908,1.34394 -1.0781,1.383323 -1.39752,1.696317 -1.90908,1.870669 -0.48489,0.165259 -1.18868,0.187141 -1.64296,0.05094 -0.72702,-0.217973 -1.26159,-0.816986 -1.25535,-1.40655 0.005,-0.441969 0.18525,-0.746243 0.66422,-1.119561 0.2177,-0.169674 0.85249,-0.677675 1.41067,-1.128895 0.55818,-0.451222 1.13636,-0.847449 1.2847,-0.880406 0.14833,-0.03296 0.34583,-0.08046 0.43893,-0.105577 0.031,-0.0084 0.0694,-0.01229 0.11372,-0.01225 z m 5.43816,2.054992 c 0.21473,0.0088 0.43446,0.06598 0.67298,0.165659 0.49353,0.206264 0.71541,0.418426 0.93286,0.892072 0.43085,0.938489 0.18761,1.502041 -1.22347,2.833904 -1.32734,1.252801 -1.7569,1.449472 -2.60965,1.194222 -0.65207,-0.195179 -1.15557,-0.94096 -1.15447,-1.710256 8e-4,-0.585991 0.15402,-0.836356 1.21667,-1.991217 0.92228,-1.002296 1.52091,-1.410926 2.16508,-1.384384 z"
    fill="#ffffff"
  />
  <path
    d="m 67.10572,65.678407 0.61616,-2.155869 -6.47362,-0.01397 c 0,0 1.17748,-2.445169 4.55374,-2.438244 1.02384,0.0023 1.8314,0.235254 2.46206,0.555115 l 2.52729,-8.842701 2.99828,0.857427 c -0.0381,-1.102437 -0.13182,-1.969636 -0.2428,-2.585307 -0.18342,-1.018941 -0.80251,-0.555298 -2.06786,0.007 -0.89099,0.395352 -3.07517,1.157732 -6.02123,1.112801 -2.94622,-0.04447 -5.1017,-0.87253 -5.9787,-1.29621 -1.24355,-0.599817 -1.8456,-1.082821 -2.06604,-0.06928 -0.19518,0.89373 -0.37512,2.314521 -0.41002,4.248957 -0.0766,4.188897 1.20338,12.668603 8.17191,12.775735 1.82033,0.02782 3.27062,-0.531426 4.42553,-1.442606 L 67.10585,65.67787 Z m -7.63543,-9.856837 4.94453,0.103308 c 0,0 -0.63974,1.731117 -2.49345,1.692722 -1.85405,-0.03901 -2.45108,-1.79603 -2.45108,-1.79603 z"
    fill="#e2574c"
  />
  <path
    d="m 88.06749,57.83382 c -1.25516,-0.132211 -4.19731,-0.691133 -7.46955,-2.654714 -3.27335,-1.963284 -5.15059,-4.296655 -5.8593,-5.343768 -1.00462,-1.484457 -1.36586,-2.419745 -2.27019,-1.41991 -0.79881,0.881536 -1.92258,2.366626 -3.21646,4.525462 -2.80276,4.674617 -6.86941,15.067802 0.87,19.712804 7.73822,4.642587 14.98885,-3.840739 17.79184,-8.51581 1.29374,-2.158355 2.07398,-3.849801 2.47566,-4.969412 0.45557,-1.26815 -0.53942,-1.146737 -2.322,-1.334652 z m -18.0378,-0.627659 c 0,0 1.90827,-1.677297 3.96657,-0.399653 2.05976,1.278056 1.5248,3.806845 1.5248,3.806845 z m 2.83322,10.785593 c -3.61066,-2.281585 -3.32005,-5.59869 -3.32005,-5.59869 l 9.73981,5.987792 c 1e-4,-4e-4 -2.84493,1.866639 -6.41976,-0.389102 z m 5.58902,-5.389462 c 0,0 1.90603,-1.676377 3.96343,-0.397024 2.05755,1.278472 1.52539,3.808058 1.52539,3.808058 z"
    fill="#2ead33"
  />
</svg>
