<?xml version="1.0" encoding="UTF-8"?>
<svg xmlns="http://www.w3.org/2000/svg" width="1000" height="1000">
  <path style="fill:#000000;fill-opacity:1;fill-rule:nonzero;stroke:#ffffff;stroke-width:9.99992;stroke-linecap:round;stroke-linejoin:round;stroke-miterlimit:4;stroke-dasharray:none;stroke-opacity:1"
        d="M 500.00002,4.9998824 928.00005,252.49994 928.00002,747.50007 499.99998,995.00012 71.99996,747.50003 71.999971,252.49992 Z" />
  <path style="fill:#ffffff;fill-opacity:1;fill-rule:nonzero;stroke:none;stroke-width:11.1091;stroke-linecap:round;stroke-linejoin:round;stroke-miterlimit:4;stroke-dasharray:none;stroke-opacity:1"
        d="m 652.37153,130.00002 c -3.39949,-0.002 -7.20506,0.19006 -11.65161,0.54054 -18.02017,1.42029 -24.55784,3.75269 -51.10045,18.2303 -18.10186,9.87364 -26.99006,15.88364 -41.12458,27.80628 -6.74449,5.68912 -14.77028,12.44999 -17.83499,15.02406 -87.92836,55.34432 -236.10393,38.73114 -322.43181,89.11 -59.15305,36.7113 -59.48265,60.70684 -62.06781,80.88915 -2.78278,22.49114 -4.50214,43.32395 -4.24347,86.15069 0.0906,13.68558 0.40537,28.24179 0.69784,32.3483 0.29266,4.10646 1.06896,17.99385 1.72616,30.86088 1.25085,24.48795 -1.97427,43.09435 -2.80112,55.35394 -0.82685,12.25956 -0.5301,1.02556 -0.24491,26.19248 0.28517,25.16688 13.47419,58.60675 20.88301,71.44157 7.40881,12.83482 19.25782,26.88003 20.71582,27.6721 4.13895,2.24847 13.25254,1.95477 15.89892,-0.51138 1.6337,-1.52229 2.17712,-3.17829 2.17712,-6.62829 0,-4.16809 -0.49054,-5.13179 -5.22511,-10.25068 -9.64977,-9.90567 -16.61637,-18.5974 -19.15878,-27.84904 -2.54242,-9.25165 -0.82681,-50.4569 5.04046,-52.81655 3.34404,-1.27171 7.05609,0.587 8.30032,4.15701 0.54867,1.57438 1.69042,3.12762 2.53869,3.45318 2.20578,0.84663 6.19743,-0.34571 6.8502,-2.04742 0.30539,-0.79611 -1.25862,-7.18485 -3.47561,-14.19571 -5.73386,-18.1322 -6.64696,-24.84967 -10.30837,-38.94945 -3.66141,-14.09977 -9.22059,-55.12915 -5.5342,-72.85121 3.6864,-17.72211 14.39058,-37.74937 26.13535,-58.01383 11.74477,-20.26452 64.76715,-88.66311 79.53929,-99.32958 14.7722,-10.66639 26.54535,-14.13328 54.13877,-21.50067 17.56456,-4.57576 32.67776,-3.08244 40.92235,4.04617 3.36396,2.90869 3.82548,3.83018 3.73027,7.46056 -0.14626,5.58569 -6.33988,13.43377 -17.33348,21.96734 -31.0832,24.12782 -55.49392,57.23044 -73.79712,100.07421 -6.86142,16.0611 -13.54964,36.39623 -17.18962,52.26437 -5.43353,23.68675 -7.87827,39.02951 -9.62604,60.39564 -2.15883,26.39094 13.50263,88.28403 16.83972,98.88622 3.33714,10.6022 11.54856,31.42589 14.99894,37.9714 3.45033,6.54553 11.43907,21.41483 28.59042,47.14488 8.08848,12.13417 31.93247,41.20967 54.35644,66.28318 8.04005,8.98989 17.17127,19.92814 20.29213,24.30841 3.12091,4.38021 9.5353,12.66784 14.25441,18.41695 13.31023,16.21522 14.19519,17.46064 23.68219,33.34959 10.63189,17.8065 14.19461,24.24286 21.63722,39.07777 5.91992,11.79977 9.26166,15.46681 12.01311,13.18271 2.22309,-1.84549 1.8937,-12.15128 -1.02637,-32.09745 -2.72333,-18.60289 -2.58054,-24.64279 0.58508,-24.64279 2.96482,0 4.70539,4.6807 8.98462,24.1781 2.1886,9.97211 4.22321,18.94383 4.52144,19.93741 0.71222,2.3732 4.34045,3.69978 6.71415,2.45383 1.63445,-0.85793 1.78907,-1.75189 1.23825,-7.12995 -0.34659,-3.3817 -1.52868,-10.83899 -2.62625,-16.57181 -1.09754,-5.7328 -2.67537,-15.92152 -3.50864,-22.64009 -0.83332,-6.71861 -1.88747,-13.21434 -2.34237,-14.43492 -0.45494,-1.22061 -1.12082,-4.45838 -1.47926,-7.19606 -0.35869,-2.73765 -1.60887,-10.71656 -2.77784,-17.73065 -1.98664,-11.92095 -2.01684,-12.86084 -0.46069,-14.41736 2.41134,-2.41197 4.8593,-0.49693 6.2262,4.8706 0.61372,2.40953 1.87419,6.17257 2.80112,8.36266 4.06557,9.60544 12.59071,64.8269 13.93373,74.45341 1.34297,9.62647 1.90998,14.56694 3.87215,31.71634 1.5967,2.55738 4.52717,2.3052 5.58668,-0.48217 h -0.002 c 0.48635,-1.27938 1.19565,-9.88948 1.57651,-19.13445 0.38086,-9.24486 1.12293,-17.94242 1.65033,-19.32693 0.52735,-1.3845 0.9462,-7.35572 0.93112,-13.26828 -0.0227,-8.75687 0.25626,-10.85866 1.49874,-11.33563 2.88082,-1.10576 4.49313,2.24767 5.89183,12.24751 1.98334,14.17865 4.43784,21.70314 7.20986,22.10349 l 2.20237,0.3167 v -28.87368 c 0,-16.87127 0.41473,-29.96426 0.99719,-31.49667 0.72173,-1.8987 1.5877,-2.53426 3.1355,-2.30405 3.40203,0.50585 5.71207,4.73652 6.78606,12.43223 1.24448,8.91738 2.60497,11.96486 5.59835,12.53719 1.29124,0.24688 2.58066,0.21482 2.8672,-0.0717 0.9236,-0.92386 0.51404,-36.29992 -0.50152,-43.32619 -0.54058,-3.73992 -2.99051,-15.93286 -5.44479,-27.09463 -2.45431,-11.16178 -6.27011,-30.05138 -8.47914,-41.9787 -2.20905,-11.92732 -5.79208,-29.97502 -7.96406,-40.10432 -5.89274,-27.48217 -8.70622,-58.58478 -9.86514,-67.61122 -1.15891,-9.02645 -1.78416,-17.52784 -1.05358,-29.7584 0.73063,-12.2306 9.98396,-68.49719 16.46263,-86.50841 5.54918,-15.4272 15.11169,-34.54987 21.50699,-43.00921 4.86052,-6.42922 5.26828,-6.7093 20.59729,-14.0986 27.611,-13.30977 56.77614,-30.43955 75.28615,-44.21858 6.56871,-4.88979 21.79619,-16.98921 33.83886,-26.88659 30.42531,-25.00539 56.36141,-44.72839 64.02916,-48.69456 5.04465,-2.60934 10.7754,-2.07211 14.17667,1.32999 2.5042,2.50484 2.908,3.66572 2.908,8.33933 0,5.25014 1.77272,1.90602 -6.98237,13.94687 -8.75512,12.04085 -34.429,21.80961 -44.84314,32.34247 -10.41419,10.5329 -23.79951,25.66323 -21.97939,27.85687 1.82015,2.19363 9.04702,-2.54903 27.94454,-12.24976 18.89744,-9.70072 59.15621,-6.73845 65.91333,9.34491 6.75711,16.08323 1.02301,32.02606 5.58085,46.94458 4.55784,14.91849 17.28412,36.65753 29.40302,44.21663 7.7269,4.52943 11.00863,2.19149 4.9821,-3.54845 -6.98332,-6.65114 -12.12,-22.26295 -8.92815,-27.13546 3.74797,-5.72167 11.02409,-3.65693 16.23907,4.60617 3.34489,5.30007 11.13918,14.85702 13.45936,16.50373 1.01639,0.72137 2.8492,1.16941 4.07241,0.99549 3.96002,-0.56282 3.47474,-5.73509 -1.36654,-14.53988 -2.32168,-4.22243 -6.18856,-11.68216 -8.59192,-16.57764 -5.27527,-10.74556 -5.88824,-18.10967 -6.22231,-42.01564 -0.33411,-23.90593 5.63086,-42.02212 10.97121,-58.09353 5.34033,-16.07148 12.49757,-44.25988 9.28391,-61.83063 -1.15906,-6.07124 -4.21661,-10.64402 -11.05481,-16.53094 -12.5747,-10.82544 -17.70235,-12.60253 -36.57782,-12.67918 -14.60303,-0.0593 -12.28175,-0.9275 -71.65881,26.79326 -23.62976,11.03176 -45.91112,20.77225 -51.25602,22.40678 -32.76979,10.02165 -48.13988,13.1334 -71.8882,14.55352 0,0 -11.34791,1.05623 -12.3086,-0.61051 -0.96071,-1.66669 -1.15997,-5.67548 -0.44133,-8.29073 1.53374,-5.4791 5.15954,-9.95236 12.65654,-15.61905 31.27083,-23.63618 81.4826,-77.74037 91.9082,-99.03201 5.43216,-11.09382 7.29609,-20.90412 6.70243,-35.27844 -0.35716,-8.64484 -1.10211,-13.40862 -3.00521,-19.2336 -5.81032,-17.7847 -17.4197,-31.53673 -32.9175,-38.99413 -9.24381,-4.448 -15.78916,-6.19746 -25.98761,-6.2025 z m -46.98337,73.57844 c 3.09935,0.003 9.017,1.93251 11.56602,3.93149 3.4749,2.725 4.93479,5.64212 4.97632,9.94539 0.0302,3.06503 -1.19486,5.23259 -7.59084,13.4394 -10.78091,13.83323 -13.97511,16.96317 -19.09074,18.70669 -4.84889,1.65259 -11.8868,1.87141 -16.4296,0.50942 -7.27018,-2.17973 -12.61595,-8.16986 -12.55355,-14.0655 0.0464,-4.41969 1.85253,-7.46243 6.64227,-11.19561 2.17696,-1.69674 8.52482,-6.77675 14.10667,-11.28895 5.58182,-4.51222 11.36359,-8.47449 12.84697,-8.80406 1.48337,-0.32957 3.45832,-0.80456 4.38933,-1.05577 0.30954,-0.0835 0.69436,-0.12291 1.13715,-0.12249 z m 54.38168,20.54992 c 2.14731,0.0885 4.3446,0.65978 6.72972,1.65659 4.93534,2.06264 7.15419,4.18426 9.32863,8.92072 4.30847,9.38489 1.87615,15.02041 -12.23472,28.33904 -13.27332,12.52801 -17.56894,14.49472 -26.0965,11.94222 -6.5207,-1.95179 -11.55567,-9.4096 -11.54463,-17.10256 0.008,-5.85991 1.54015,-8.36356 12.16671,-19.91217 9.22276,-10.02296 15.20904,-14.10926 21.65079,-13.84384 z" />
  <path d="m 671.0572,656.78407 6.16156,-21.55869 -64.7362,-0.13966 c 0,0 11.77485,-24.45169 45.53744,-24.38244 10.23845,0.0229 18.31402,2.35254 24.62063,5.55115 l 25.27283,-88.42701 29.98282,8.57427 c -0.3806,-11.02437 -1.31813,-19.69636 -2.42799,-25.85307 -1.83414,-10.18941 -8.0251,-5.55298 -20.67857,0.0702 -8.90993,3.95352 -30.75173,11.57732 -60.21228,11.12801 -29.46227,-0.44465 -51.01706,-8.7253 -59.78706,-12.9621 -12.43545,-5.99817 -18.45599,-10.82821 -20.66041,-0.69279 -1.95173,8.9373 -3.75119,23.14521 -4.10018,42.48957 -0.76591,41.88897 12.03379,126.68603 81.71912,127.75735 18.20329,0.27817 32.70618,-5.31426 44.25532,-14.42606 l -24.94571,-7.13385 z m -76.35425,-98.56837 49.44529,1.03308 c 0,0 -6.39739,17.31117 -24.93452,16.92722 -18.54049,-0.39008 -24.51077,-17.9603 -24.51077,-17.9603 z"
        fill="#e2574c" />
  <path d="m 880.67495,578.3382 c -12.55161,-1.32211 -41.97318,-6.91133 -74.69554,-26.54714 -32.73354,-19.63284 -51.50586,-42.96655 -58.59302,-53.43768 -10.04615,-14.84457 -13.65855,-24.19745 -22.70185,-14.1991 -7.98816,8.81536 -19.22583,23.66626 -32.16465,45.25462 -28.02755,46.74617 -68.6941,150.67802 8.69997,197.12804 77.38224,46.42587 149.88858,-38.40739 177.91843,-85.1581 12.93743,-21.58355 20.73981,-38.49801 24.75663,-49.69412 4.55564,-12.6815 -5.39421,-11.46737 -23.21997,-13.34652 z m -180.37808,-6.27659 c 0,0 19.08273,-16.77297 39.66577,-3.99653 20.59752,12.78056 15.24799,38.06845 15.24799,38.06845 z m 28.33224,107.85593 c -36.10662,-22.81585 -33.20053,-55.9869 -33.20053,-55.9869 l 97.39809,59.87792 c 9.9e-4,-0.004 -28.4493,18.66639 -64.19756,-3.89102 z m 55.8902,-53.89462 c 0,0 19.06028,-16.76377 39.63432,-3.97024 20.57552,12.78472 15.25388,38.08058 15.25388,38.08058 z"
        fill="#2ead33" />
</svg>
